<svg xmlns="http://www.w3.org/2000/svg" viewBox="0 0 800 600">
  <!-- Background -->
  <defs>
    <linearGradient id="bg-gradient" x1="0%" y1="0%" x2="100%" y2="100%">
      <stop offset="0%" stop-color="#f8f9fa" />
      <stop offset="100%" stop-color="#e9ecef" />
    </linearGradient>
    
    <!-- Node gradients -->
    <radialGradient id="core-node-gradient" cx="50%" cy="50%" r="50%" fx="50%" fy="50%">
      <stop offset="0%" stop-color="#4361ee" />
      <stop offset="100%" stop-color="#3a0ca3" />
    </radialGradient>
    
    <radialGradient id="mid-node-gradient" cx="50%" cy="50%" r="50%" fx="50%" fy="50%">
      <stop offset="0%" stop-color="#7209b7" />
      <stop offset="100%" stop-color="#560bad" />
    </radialGradient>
    
    <radialGradient id="outer-node-gradient" cx="50%" cy="50%" r="50%" fx="50%" fy="50%">
      <stop offset="0%" stop-color="#f72585" />
      <stop offset="100%" stop-color="#b5179e" />
    </radialGradient>
    
    <radialGradient id="new-branch-gradient" cx="50%" cy="50%" r="50%" fx="50%" fy="50%">
      <stop offset="0%" stop-color="#4cc9f0" />
      <stop offset="100%" stop-color="#4895ef" />
    </radialGradient>
    
    <!-- Connection gradients -->
    <linearGradient id="connection-gradient" x1="0%" y1="0%" x2="100%" y2="0%">
      <stop offset="0%" stop-color="#4cc9f0" stop-opacity="0.7" />
      <stop offset="100%" stop-color="#4361ee" stop-opacity="0.7" />
    </linearGradient>
    
    <linearGradient id="branch-connection-gradient" x1="0%" y1="0%" x2="100%" y2="0%">
      <stop offset="0%" stop-color="#f72585" stop-opacity="0.7" />
      <stop offset="100%" stop-color="#4cc9f0" stop-opacity="0.7" />
    </linearGradient>
    
    <!-- Time slice guides -->
    <linearGradient id="time-slice-gradient" x1="0%" y1="0%" x2="0%" y2="100%">
      <stop offset="0%" stop-color="#4cc9f0" stop-opacity="0.1" />
      <stop offset="100%" stop-color="#4cc9f0" stop-opacity="0.05" />
    </linearGradient>
    
    <!-- New branch circle -->
    <linearGradient id="branch-circle-gradient" x1="0%" y1="0%" x2="100%" y2="100%">
      <stop offset="0%" stop-color="#4cc9f0" stop-opacity="0.2" />
      <stop offset="100%" stop-color="#4895ef" stop-opacity="0.1" />
    </linearGradient>
    
    <!-- Threshold indicator -->
    <linearGradient id="threshold-gradient" x1="0%" y1="0%" x2="100%" y2="0%">
      <stop offset="0%" stop-color="#f72585" stop-opacity="0.3" />
      <stop offset="100%" stop-color="#f72585" stop-opacity="0.1" />
    </linearGradient>
  </defs>
  
  <!-- Background -->
  <rect width="800" height="600" fill="url(#bg-gradient)" />
  
  <!-- Title -->
  <text x="400" y="40" font-family="Arial" font-size="22" font-weight="bold" fill="#333" text-anchor="middle">Branch Formation in Knowledge Structure</text>
  <text x="400" y="70" font-family="Arial" font-size="16" fill="#555" text-anchor="middle">When concepts grow too distant, they become new centers</text>
  
  <!-- Time axis (T1, T2, T3) -->
  <line x1="400" y1="550" x2="400" y2="130" stroke="#888" stroke-width="2" stroke-dasharray="5,3" />
  <polygon points="400,120 395,130 405,130" fill="#888" />
  <text x="410" y="125" font-family="Arial" font-size="14" fill="#666">Time (t)</text>
  
  <!-- Early stage (T1): Simple structure -->
  <g transform="translate(0, 40)">
    <text x="100" y="470" font-family="Arial" font-size="14" fill="#666" font-weight="bold">T₁: Early Stage</text>
    
    <!-- Simple structure -->
    <ellipse cx="200" cy="470" rx="80" ry="30" stroke="#4cc9f0" stroke-width="1" fill="url(#time-slice-gradient)" opacity="0.6" />
    
    <!-- Core node -->
    <circle cx="200" cy="470" r="15" fill="url(#core-node-gradient)" />
    <text x="200" y="470" font-family="Arial" font-size="9" fill="white" text-anchor="middle">Core</text>
    
    <!-- Surrounding nodes -->
    <circle cx="160" cy="460" r="8" fill="url(#mid-node-gradient)" />
    <circle cx="240" cy="460" r="8" fill="url(#mid-node-gradient)" />
    <circle cx="180" cy="440" r="8" fill="url(#mid-node-gradient)" />
    <circle cx="220" cy="440" r="8" fill="url(#mid-node-gradient)" />
    
    <!-- Connections -->
    <line x1="200" y1="470" x2="160" y2="460" stroke="url(#connection-gradient)" stroke-width="1.5" />
    <line x1="200" y1="470" x2="240" y2="460" stroke="url(#connection-gradient)" stroke-width="1.5" />
    <line x1="200" y1="470" x2="180" y2="440" stroke="url(#connection-gradient)" stroke-width="1.5" />
    <line x1="200" y1="470" x2="220" y2="440" stroke="url(#connection-gradient)" stroke-width="1.5" />
  </g>
  
  <!-- Middle stage (T2): Growing structure with threshold -->
  <g transform="translate(0, 0)">
    <text x="100" y="370" font-family="Arial" font-size="14" fill="#666" font-weight="bold">T₂: Growing Structure</text>
    
    <!-- Growing structure -->
    <ellipse cx="200" cy="370" rx="120" ry="50" stroke="#4cc9f0" stroke-width="1" fill="url(#time-slice-gradient)" opacity="0.6" />
    
    <!-- Threshold circle -->
    <circle cx="200" cy="370" r="90" stroke="#f72585" stroke-width="1.5" stroke-dasharray="5,3" fill="none" />
    <text x="160" y="300" font-family="Arial" font-size="12" fill="#f72585">Threshold</text>
    
    <!-- Core node -->
    <circle cx="200" cy="370" r="15" fill="url(#core-node-gradient)" />
    <text x="200" y="370" font-family="Arial" font-size="9" fill="white" text-anchor="middle">Core</text>
    
    <!-- Mid-level nodes -->
    <circle cx="140" cy="370" r="10" fill="url(#mid-node-gradient)" />
    <text x="140" y="370" font-family="Arial" font-size="7" fill="white" text-anchor="middle">A</text>
    
    <circle cx="260" cy="370" r="10" fill="url(#mid-node-gradient)" />
    <text x="260" y="370" font-family="Arial" font-size="7" fill="white" text-anchor="middle">B</text>
    
    <circle cx="170" cy="320" r="10" fill="url(#mid-node-gradient)" />
    <text x="170" y="320" font-family="Arial" font-size="7" fill="white" text-anchor="middle">C</text>
    
    <circle cx="230" cy="320" r="10" fill="url(#mid-node-gradient)" />
    <text x="230" y="320" font-family="Arial" font-size="7" fill="white" text-anchor="middle">D</text>
    
    <!-- Approaching threshold node - highlighted -->
    <circle cx="120" cy="310" r="12" fill="url(#outer-node-gradient)" />
    <text x="120" y="310" font-family="Arial" font-size="8" fill="white" text-anchor="middle">E</text>
    
    <!-- Other outer nodes -->
    <circle cx="280" cy="330" r="7" fill="url(#outer-node-gradient)" />
    <circle cx="150" cy="410" r="7" fill="url(#outer-node-gradient)" />
    <circle cx="250" cy="410" r="7" fill="url(#outer-node-gradient)" />
    
    <!-- Satellite nodes around E (approaching threshold) -->
    <circle cx="100" cy="290" r="5" fill="url(#outer-node-gradient)" opacity="0.8" />
    <circle cx="130" cy="280" r="5" fill="url(#outer-node-gradient)" opacity="0.8" />
    <circle cx="90" cy="320" r="5" fill="url(#outer-node-gradient)" opacity="0.8" />
    
    <!-- Connections -->
    <line x1="200" y1="370" x2="140" y2="370" stroke="url(#connection-gradient)" stroke-width="1.5" />
    <line x1="200" y1="370" x2="260" y2="370" stroke="url(#connection-gradient)" stroke-width="1.5" />
    <line x1="200" y1="370" x2="170" y2="320" stroke="url(#connection-gradient)" stroke-width="1.5" />
    <line x1="200" y1="370" x2="230" y2="320" stroke="url(#connection-gradient)" stroke-width="1.5" />
    <line x1="140" y1="370" x2="120" y2="310" stroke="url(#connection-gradient)" stroke-width="1.5" />
    <line x1="170" y1="320" x2="120" y2="310" stroke="url(#connection-gradient)" stroke-width="1" />
    <line x1="260" y1="370" x2="280" y2="330" stroke="url(#connection-gradient)" stroke-width="1" />
    <line x1="140" y1="370" x2="150" y2="410" stroke="url(#connection-gradient)" stroke-width="1" />
    <line x1="260" y1="370" x2="250" y2="410" stroke="url(#connection-gradient)" stroke-width="1" />
    
    <!-- Satellite connections -->
    <line x1="120" y1="310" x2="100" y2="290" stroke="url(#connection-gradient)" stroke-width="0.8" />
    <line x1="120" y1="310" x2="130" y2="280" stroke="url(#connection-gradient)" stroke-width="0.8" />
    <line x1="120" y1="310" x2="90" y2="320" stroke="url(#connection-gradient)" stroke-width="0.8" />
  </g>
  
  <!-- Advanced stage (T3): New branch formation -->
  <g transform="translate(0, -40)">
    <text x="100" y="260" font-family="Arial" font-size="14" fill="#666" font-weight="bold">T₃: New Branch Formation</text>
    
    <!-- Original structure continues -->
    <ellipse cx="200" cy="260" rx="140" ry="60" stroke="#4cc9f0" stroke-width="1" fill="url(#time-slice-gradient)" opacity="0.6" />
    
    <!-- Threshold circle -->
    <circle cx="200" cy="260" r="100" stroke="#f72585" stroke-width="1.5" stroke-dasharray="5,3" fill="none" />
    
    <!-- New branch structure -->
    <ellipse cx="580" cy="260" rx="80" ry="40" stroke="#4cc9f0" stroke-width="1" fill="url(#branch-circle-gradient)" opacity="0.7" />
    
    <!-- Branch connection -->
    <path d="M 110 240 C 300 180, 400 200, 520 240" stroke="url(#branch-connection-gradient)" stroke-width="2" fill="none" stroke-dasharray="5,3" />
    <text x="320" y="200" font-family="Arial" font-size="12" fill="#f72585">Branch Connection</text>
    
    <!-- Core node -->
    <circle cx="200" cy="260" r="15" fill="url(#core-node-gradient)" />
    <text x="200" y="260" font-family="Arial" font-size="9" fill="white" text-anchor="middle">Core</text>
    
    <!-- Mid-level nodes in original -->
    <circle cx="150" cy="270" r="10" fill="url(#mid-node-gradient)" />
    <text x="150" y="270" font-family="Arial" font-size="7" fill="white" text-anchor="middle">A</text>
    
    <circle cx="250" cy="270" r="10" fill="url(#mid-node-gradient)" />
    <text x="250" y="270" font-family="Arial" font-size="7" fill="white" text-anchor="middle">B</text>
    
    <circle cx="180" cy="220" r="10" fill="url(#mid-node-gradient)" />
    <text x="180" y="220" font-family="Arial" font-size="7" fill="white" text-anchor="middle">C</text>
    
    <circle cx="220" cy="220" r="10" fill="url(#mid-node-gradient)" />
    <text x="220" y="220" font-family="Arial" font-size="7" fill="white" text-anchor="middle">D</text>
    
    <!-- Other outer nodes in original -->
    <circle cx="270" cy="230" r="7" fill="url(#outer-node-gradient)" />
    <circle cx="160" cy="310" r="7" fill="url(#outer-node-gradient)" />
    <circle cx="240" cy="310" r="7" fill="url(#outer-node-gradient)" />
    <circle cx="130" cy="230" r="7" fill="url(#outer-node-gradient)" />
    
    <!-- New branch core (was previously E) -->
    <circle cx="580" cy="260" r="14" fill="url(#new-branch-gradient)" />
    <text x="580" y="260" font-family="Arial" font-size="9" fill="white" text-anchor="middle">E</text>
    
    <!-- New branch nodes -->
    <circle cx="540" cy="250" r="8" fill="url(#mid-node-gradient)" />
    <text x="540" y="250" font-family="Arial" font-size="6" fill="white" text-anchor="middle">E1</text>
    
    <circle cx="620" cy="250" r="8" fill="url(#mid-node-gradient)" />
    <text x="620" y="250" font-family="Arial" font-size="6" fill="white" text-anchor="middle">E2</text>
    
    <circle cx="560" cy="230" r="8" fill="url(#mid-node-gradient)" />
    <text x="560" y="230" font-family="Arial" font-size="6" fill="white" text-anchor="middle">E3</text>
    
    <circle cx="600" cy="230" r="8" fill="url(#mid-node-gradient)" />
    <text x="600" y="230" font-family="Arial" font-size="6" fill="white" text-anchor="middle">E4</text>
    
    <circle cx="570" cy="290" r="8" fill="url(#mid-node-gradient)" />
    <text x="570" y="290" font-family="Arial" font-size="6" fill="white" text-anchor="middle">E5</text>
    
    <circle cx="590" cy="290" r="8" fill="url(#mid-node-gradient)" />
    <text x="590" y="290" font-family="Arial" font-size="6" fill="white" text-anchor="middle">E6</text>
    
    <!-- Former satellite nodes, now in new branch -->
    <circle cx="530" cy="270" r="6" fill="url(#outer-node-gradient)" />
    <circle cx="630" cy="270" r="6" fill="url(#outer-node-gradient)" />
    <circle cx="550" cy="290" r="6" fill="url(#outer-node-gradient)" />
    <circle cx="610" cy="290" r="6" fill="url(#outer-node-gradient)" />
    <circle cx="540" cy="230" r="6" fill="url(#outer-node-gradient)" />
    <circle cx="620" cy="230" r="6" fill="url(#outer-node-gradient)" />
    
    <!-- Connections in original structure -->
    <line x1="200" y1="260" x2="150" y2="270" stroke="url(#connection-gradient)" stroke-width="1.5" />
    <line x1="200" y1="260" x2="250" y2="270" stroke="url(#connection-gradient)" stroke-width="1.5" />
    <line x1="200" y1="260" x2="180" y2="220" stroke="url(#connection-gradient)" stroke-width="1.5" />
    <line x1="200" y1="260" x2="220" y2="220" stroke="url(#connection-gradient)" stroke-width="1.5" />
    <line x1="250" y1="270" x2="270" y2="230" stroke="url(#connection-gradient)" stroke-width="1" />
    <line x1="150" y1="270" x2="160" y2="310" stroke="url(#connection-gradient)" stroke-width="1" />
    <line x1="250" y1="270" x2="240" y2="310" stroke="url(#connection-gradient)" stroke-width="1" />
    <line x1="150" y1="270" x2="130" y2="230" stroke="url(#connection-gradient)" stroke-width="1" />
    
    <!-- Connections in new branch -->
    <line x1="580" y1="260" x2="540" y2="250" stroke="url(#connection-gradient)" stroke-width="1.5" />
    <line x1="580" y1="260" x2="620" y2="250" stroke="url(#connection-gradient)" stroke-width="1.5" />
    <line x1="580" y1="260" x2="560" y2="230" stroke="url(#connection-gradient)" stroke-width="1.5" />
    <line x1="580" y1="260" x2="600" y2="230" stroke="url(#connection-gradient)" stroke-width="1.5" />
    <line x1="580" y1="260" x2="570" y2="290" stroke="url(#connection-gradient)" stroke-width="1.5" />
    <line x1="580" y1="260" x2="590" y2="290" stroke="url(#connection-gradient)" stroke-width="1.5" />
    
    <line x1="540" y1="250" x2="530" y2="270" stroke="url(#connection-gradient)" stroke-width="0.8" />
    <line x1="620" y1="250" x2="630" y2="270" stroke="url(#connection-gradient)" stroke-width="0.8" />
    <line x1="570" y1="290" x2="550" y2="290" stroke="url(#connection-gradient)" stroke-width="0.8" />
    <line x1="590" y1="290" x2="610" y2="290" stroke="url(#connection-gradient)" stroke-width="0.8" />
    <line x1="560" y1="230" x2="540" y2="230" stroke="url(#connection-gradient)" stroke-width="0.8" />
    <line x1="600" y1="230" x2="620" y2="230" stroke="url(#connection-gradient)" stroke-width="0.8" />
  </g>
  
  <!-- Legend -->
  <rect x="600" y="430" width="170" height="150" rx="10" ry="10" fill="white" fill-opacity="0.9" stroke="#ddd" />
  <text x="610" y="455" font-family="Arial" font-size="14" font-weight="bold" fill="#333">Legend</text>
  
  <circle cx="620" cy="480" r="10" fill="url(#core-node-gradient)" />
  <text x="640" y="485" font-family="Arial" font-size="12" fill="#333">Original Core</text>
  
  <circle cx="620" cy="510" r="10" fill="url(#new-branch-gradient)" />
  <text x="640" y="515" font-family="Arial" font-size="12" fill="#333">New Branch Core</text>
  
  <circle cx="620" cy="540" r="8" fill="url(#outer-node-gradient)" />
  <text x="640" y="545" font-family="Arial" font-size="12" fill="#333">Peripheral Node</text>
  
  <line x1="610" y1="565" x2="630" y2="565" stroke="#f72585" stroke-width="1.5" stroke-dasharray="5,3" />
  <text x="640" y="570" font-family="Arial" font-size="12" fill="#333">Threshold Boundary</text>
  
  <!-- Process explanation -->
  <rect x="40" y="430" width="530" height="150" rx="10" ry="10" fill="white" fill-opacity="0.9" stroke="#ddd" />
  <text x="50" y="455" font-family="Arial" font-size="14" font-weight="bold" fill="#333">Branch Formation Process</text>
  
  <text x="60" y="485" font-family="Arial" font-size="12" fill="#333">1. As knowledge expands, peripheral nodes move further from the core</text>
  <text x="60" y="515" font-family="Arial" font-size="12" fill="#333">2. When a node exceeds the threshold distance and has sufficient connections</text>
  <text x="60" y="530" font-family="Arial" font-size="12" fill="#333">   to other nodes, it becomes a candidate for branching</text>
  <text x="60" y="560" font-family="Arial" font-size="12" fill="#333">3. The node becomes a new core with its own local coordinate system</text>
  <text x="60" y="575" font-family="Arial" font-size="12" fill="#333">4. While maintaining a connection to the original structure</text>
</svg>
