<svg xmlns="http://www.w3.org/2000/svg" viewBox="0 0 800 600">
  <!-- Background gradient -->
  <defs>
    <linearGradient id="bg-gradient" x1="0%" y1="0%" x2="100%" y2="100%">
      <stop offset="0%" stop-color="#f5f7fa" />
      <stop offset="100%" stop-color="#e4e8f0" />
    </linearGradient>
    
    <!-- Node gradients -->
    <radialGradient id="core-node-gradient" cx="50%" cy="50%" r="50%" fx="50%" fy="50%">
      <stop offset="0%" stop-color="#5E72E4" />
      <stop offset="100%" stop-color="#324CDD" />
    </radialGradient>
    
    <radialGradient id="mid-node-gradient" cx="50%" cy="50%" r="50%" fx="50%" fy="50%">
      <stop offset="0%" stop-color="#9370DB" />
      <stop offset="100%" stop-color="#8A2BE2" />
    </radialGradient>
    
    <radialGradient id="outer-node-gradient" cx="50%" cy="50%" r="50%" fx="50%" fy="50%">
      <stop offset="0%" stop-color="#2DCE89" />
      <stop offset="100%" stop-color="#20A46D" />
    </radialGradient>
    
    <radialGradient id="micro-node-gradient" cx="50%" cy="50%" r="50%" fx="50%" fy="50%">
      <stop offset="0%" stop-color="#FF6B6B" />
      <stop offset="100%" stop-color="#EE5253" />
    </radialGradient>
    
    <!-- Tube sections -->
    <linearGradient id="tube-gradient" x1="0%" y1="0%" x2="100%" y2="0%">
      <stop offset="0%" stop-color="#5D72E4" stop-opacity="0.1" />
      <stop offset="100%" stop-color="#5D72E4" stop-opacity="0.2" />
    </linearGradient>
    
    <!-- Fractal glow -->
    <filter id="glow" x="-20%" y="-20%" width="140%" height="140%">
      <feGaussianBlur stdDeviation="2" result="blur" />
      <feComposite in="SourceGraphic" in2="blur" operator="over" />
    </filter>
  </defs>
  
  <!-- Background -->
  <rect width="800" height="600" fill="url(#bg-gradient)" />
  
  <!-- Title -->
  <text x="400" y="40" font-family="Arial" font-size="22" font-weight="bold" fill="#444" text-anchor="middle">Fractal Evolution of Knowledge Database</text>
  <text x="400" y="65" font-family="Arial" font-size="14" fill="#666" text-anchor="middle">Self-Similar Patterns Emerging at Multiple Scales</text>
  
  <!-- Macro View - Overall Structure -->
  <g transform="translate(400, 300) scale(0.8)">
    <!-- Main tube outline -->
    <ellipse cx="0" cy="-160" rx="160" ry="50" stroke="#5E72E4" stroke-width="1" fill="url(#tube-gradient)" opacity="0.7" />
    <ellipse cx="0" cy="0" rx="200" ry="70" stroke="#5E72E4" stroke-width="1" fill="url(#tube-gradient)" opacity="0.7" />
    <ellipse cx="0" cy="160" rx="240" ry="90" stroke="#5E72E4" stroke-width="1" fill="url(#tube-gradient)" opacity="0.7" />
    
    <!-- Connecting lines -->
    <line x1="-160" y1="-160" x2="-200" y2="0" stroke="#5E72E4" stroke-width="1" opacity="0.5" />
    <line x1="160" y1="-160" x2="200" y2="0" stroke="#5E72E4" stroke-width="1" opacity="0.5" />
    <line x1="-200" y1="0" x2="-240" y2="160" stroke="#5E72E4" stroke-width="1" opacity="0.5" />
    <line x1="200" y1="0" x2="240" y2="160" stroke="#5E72E4" stroke-width="1" opacity="0.5" />
    
    <!-- Branching tubes (fractal branches) -->
    <!-- Branch 1 -->
    <ellipse cx="-180" cy="80" rx="60" ry="25" stroke="#5E72E4" stroke-width="0.8" fill="url(#tube-gradient)" opacity="0.5" transform="rotate(30 -180 80)" />
    <ellipse cx="-220" cy="140" rx="70" ry="30" stroke="#5E72E4" stroke-width="0.8" fill="url(#tube-gradient)" opacity="0.5" transform="rotate(30 -220 140)" />
    <line x1="-180" y1="80" x2="-220" y2="140" stroke="#5E72E4" stroke-width="0.8" opacity="0.4" />
    
    <!-- Branch 2 -->
    <ellipse cx="180" cy="80" rx="60" ry="25" stroke="#5E72E4" stroke-width="0.8" fill="url(#tube-gradient)" opacity="0.5" transform="rotate(-30 180 80)" />
    <ellipse cx="220" cy="140" rx="70" ry="30" stroke="#5E72E4" stroke-width="0.8" fill="url(#tube-gradient)" opacity="0.5" transform="rotate(-30 220 140)" />
    <line x1="180" y1="80" x2="220" y2="140" stroke="#5E72E4" stroke-width="0.8" opacity="0.4" />
    
    <!-- Mesh web connections (minimal for clarity) -->
    <path d="M-50 -160 Q 0 -120 50 -160" stroke="#ddd" stroke-width="0.5" fill="none" opacity="0.3" />
    <path d="M-80 0 Q 0 40 80 0" stroke="#ddd" stroke-width="0.5" fill="none" opacity="0.3" />
    <path d="M-100 160 Q 0 200 100 160" stroke="#ddd" stroke-width="0.5" fill="none" opacity="0.3" />
    
    <!-- Main trunk nodes -->
    <circle cx="0" cy="-160" r="15" fill="url(#core-node-gradient)" />
    <circle cx="0" cy="0" r="20" fill="url(#core-node-gradient)" />
    <circle cx="0" cy="160" r="25" fill="url(#core-node-gradient)" />
    
    <!-- Branch nodes -->
    <circle cx="-180" cy="80" r="12" fill="url(#mid-node-gradient)" />
    <circle cx="-220" cy="140" r="15" fill="url(#mid-node-gradient)" />
    <circle cx="180" cy="80" r="12" fill="url(#mid-node-gradient)" />
    <circle cx="220" cy="140" r="15" fill="url(#mid-node-gradient)" />
  </g>
  
  <!-- Meso View - Zoomed in fractal sections -->
  <g transform="translate(150, 300)">
    <!-- Section title -->
    <text x="0" y="-170" font-family="Arial" font-size="14" fill="#444" text-anchor="middle">Meso Scale</text>
    <rect x="-80" y="-165" width="160" height="320" stroke="#888" stroke-width="1" stroke-dasharray="5,3" fill="none"/>
    
    <!-- Mini tube structure -->
    <ellipse cx="0" cy="-120" rx="60" ry="20" stroke="#5E72E4" stroke-width="0.8" fill="url(#tube-gradient)" opacity="0.6" />
    <ellipse cx="0" cy="-60" rx="70" ry="25" stroke="#5E72E4" stroke-width="0.8" fill="url(#tube-gradient)" opacity="0.6" />
    <ellipse cx="0" cy="0" rx="80" ry="30" stroke="#5E72E4" stroke-width="0.8" fill="url(#tube-gradient)" opacity="0.6" />
    <ellipse cx="0" cy="60" rx="70" ry="25" stroke="#5E72E4" stroke-width="0.8" fill="url(#tube-gradient)" opacity="0.6" />
    <ellipse cx="0" cy="120" rx="60" ry="20" stroke="#5E72E4" stroke-width="0.8" fill="url(#tube-gradient)" opacity="0.6" />
    
    <!-- Connecting lines -->
    <line x1="-60" y1="-120" x2="-70" y2="-60" stroke="#5E72E4" stroke-width="0.8" opacity="0.5" />
    <line x1="60" y1="-120" x2="70" y2="-60" stroke="#5E72E4" stroke-width="0.8" opacity="0.5" />
    <line x1="-70" y1="-60" x2="-80" y2="0" stroke="#5E72E4" stroke-width="0.8" opacity="0.5" />
    <line x1="70" y1="-60" x2="80" y2="0" stroke="#5E72E4" stroke-width="0.8" opacity="0.5" />
    <line x1="-80" y1="0" x2="-70" y2="60" stroke="#5E72E4" stroke-width="0.8" opacity="0.5" />
    <line x1="80" y1="0" x2="70" y2="60" stroke="#5E72E4" stroke-width="0.8" opacity="0.5" />
    <line x1="-70" y1="60" x2="-60" y2="120" stroke="#5E72E4" stroke-width="0.8" opacity="0.5" />
    <line x1="70" y1="60" x2="60" y2="120" stroke="#5E72E4" stroke-width="0.8" opacity="0.5" />
    
    <!-- Mesh web connections -->
    <path d="M-40 -120 Q 0 -100 40 -120" stroke="#ddd" stroke-width="0.5" fill="none" opacity="0.3" />
    <path d="M-50 -60 Q 0 -40 50 -60" stroke="#ddd" stroke-width="0.5" fill="none" opacity="0.3" />
    <path d="M-60 0 Q 0 20 60 0" stroke="#ddd" stroke-width="0.5" fill="none" opacity="0.3" />
    <path d="M-50 60 Q 0 80 50 60" stroke="#ddd" stroke-width="0.5" fill="none" opacity="0.3" />
    <path d="M-40 120 Q 0 140 40 120" stroke="#ddd" stroke-width="0.5" fill="none" opacity="0.3" />
    
    <!-- Nodes -->
    <circle cx="0" cy="-120" r="8" fill="url(#core-node-gradient)" />
    <circle cx="0" cy="-60" r="10" fill="url(#core-node-gradient)" />
    <circle cx="0" cy="0" r="12" fill="url(#core-node-gradient)" />
    <circle cx="0" cy="60" r="10" fill="url(#core-node-gradient)" />
    <circle cx="0" cy="120" r="8" fill="url(#core-node-gradient)" />
    
    <!-- Secondary nodes -->
    <circle cx="-30" cy="-90" r="6" fill="url(#mid-node-gradient)" />
    <circle cx="30" cy="-90" r="6" fill="url(#mid-node-gradient)" />
    <circle cx="-40" cy="-30" r="7" fill="url(#mid-node-gradient)" />
    <circle cx="40" cy="-30" r="7" fill="url(#mid-node-gradient)" />
    <circle cx="-50" cy="30" r="8" fill="url(#mid-node-gradient)" />
    <circle cx="50" cy="30" r="8" fill="url(#mid-node-gradient)" />
    <circle cx="-40" cy="90" r="7" fill="url(#mid-node-gradient)" />
    <circle cx="40" cy="90" r="7" fill="url(#mid-node-gradient)" />
    
    <!-- Connections between nodes -->
    <line x1="0" y1="-120" x2="-30" y2="-90" stroke="#9370DB" stroke-width="0.8" />
    <line x1="0" y1="-120" x2="30" y2="-90" stroke="#9370DB" stroke-width="0.8" />
    <line x1="0" y1="-60" x2="-40" y2="-30" stroke="#9370DB" stroke-width="0.8" />
    <line x1="0" y1="-60" x2="40" y2="-30" stroke="#9370DB" stroke-width="0.8" />
    <line x1="0" y1="0" x2="-50" y2="30" stroke="#9370DB" stroke-width="0.8" />
    <line x1="0" y1="0" x2="50" y2="30" stroke="#9370DB" stroke-width="0.8" />
    <line x1="0" y1="60" x2="-40" y2="90" stroke="#9370DB" stroke-width="0.8" />
    <line x1="0" y1="60" x2="40" y2="90" stroke="#9370DB" stroke-width="0.8" />
    
    <!-- Cross-time connections -->
    <line x1="-30" y1="-90" x2="-40" y2="-30" stroke="#666" stroke-width="0.5" stroke-dasharray="3,2" />
    <line x1="30" y1="-90" x2="40" y2="-30" stroke="#666" stroke-width="0.5" stroke-dasharray="3,2" />
    <line x1="-40" y1="-30" x2="-50" y2="30" stroke="#666" stroke-width="0.5" stroke-dasharray="3,2" />
    <line x1="40" y1="-30" x2="50" y2="30" stroke="#666" stroke-width="0.5" stroke-dasharray="3,2" />
    <line x1="-50" y1="30" x2="-40" y2="90" stroke="#666" stroke-width="0.5" stroke-dasharray="3,2" />
    <line x1="50" y1="30" x2="40" y2="90" stroke="#666" stroke-width="0.5" stroke-dasharray="3,2" />
  </g>
  
  <!-- Micro View - Further zoomed in -->
  <g transform="translate(650, 300)">
    <!-- Section title -->
    <text x="0" y="-170" font-family="Arial" font-size="14" fill="#444" text-anchor="middle">Micro Scale</text>
    <rect x="-80" y="-165" width="160" height="320" stroke="#888" stroke-width="1" stroke-dasharray="5,3" fill="none"/>
    
    <!-- Micro structure (fractal self-similarity) -->
    <ellipse cx="0" cy="-120" rx="30" ry="10" stroke="#5E72E4" stroke-width="0.5" fill="url(#tube-gradient)" opacity="0.5" />
    <ellipse cx="0" cy="-80" rx="35" ry="12" stroke="#5E72E4" stroke-width="0.5" fill="url(#tube-gradient)" opacity="0.5" />
    <ellipse cx="0" cy="-40" rx="40" ry="14" stroke="#5E72E4" stroke-width="0.5" fill="url(#tube-gradient)" opacity="0.5" />
    <ellipse cx="0" cy="0" rx="45" ry="16" stroke="#5E72E4" stroke-width="0.5" fill="url(#tube-gradient)" opacity="0.5" />
    <ellipse cx="0" cy="40" rx="40" ry="14" stroke="#5E72E4" stroke-width="0.5" fill="url(#tube-gradient)" opacity="0.5" />
    <ellipse cx="0" cy="80" rx="35" ry="12" stroke="#5E72E4" stroke-width="0.5" fill="url(#tube-gradient)" opacity="0.5" />
    <ellipse cx="0" cy="120" rx="30" ry="10" stroke="#5E72E4" stroke-width="0.5" fill="url(#tube-gradient)" opacity="0.5" />
    
    <!-- Connecting lines -->
    <line x1="-30" y1="-120" x2="-35" y2="-80" stroke="#5E72E4" stroke-width="0.5" opacity="0.4" />
    <line x1="30" y1="-120" x2="35" y2="-80" stroke="#5E72E4" stroke-width="0.5" opacity="0.4" />
    <line x1="-35" y1="-80" x2="-40" y2="-40" stroke="#5E72E4" stroke-width="0.5" opacity="0.4" />
    <line x1="35" y1="-80" x2="40" y2="-40" stroke="#5E72E4" stroke-width="0.5" opacity="0.4" />
    <line x1="-40" y1="-40" x2="-45" y2="0" stroke="#5E72E4" stroke-width="0.5" opacity="0.4" />
    <line x1="40" y1="-40" x2="45" y2="0" stroke="#5E72E4" stroke-width="0.5" opacity="0.4" />
    <line x1="-45" y1="0" x2="-40" y2="40" stroke="#5E72E4" stroke-width="0.5" opacity="0.4" />
    <line x1="45" y1="0" x2="40" y2="40" stroke="#5E72E4" stroke-width="0.5" opacity="0.4" />
    <line x1="-40" y1="40" x2="-35" y2="80" stroke="#5E72E4" stroke-width="0.5" opacity="0.4" />
    <line x1="40" y1="40" x2="35" y2="80" stroke="#5E72E4" stroke-width="0.5" opacity="0.4" />
    <line x1="-35" y1="80" x2="-30" y2="120" stroke="#5E72E4" stroke-width="0.5" opacity="0.4" />
    <line x1="35" y1="80" x2="30" y2="120" stroke="#5E72E4" stroke-width="0.5" opacity="0.4" />
    
    <!-- Dense node structure -->
    <circle cx="0" cy="-120" r="4" fill="url(#core-node-gradient)" />
    <circle cx="0" cy="-80" r="5" fill="url(#core-node-gradient)" />
    <circle cx="0" cy="-40" r="6" fill="url(#core-node-gradient)" />
    <circle cx="0" cy="0" r="7" fill="url(#core-node-gradient)" />
    <circle cx="0" cy="40" r="6" fill="url(#core-node-gradient)" />
    <circle cx="0" cy="80" r="5" fill="url(#core-node-gradient)" />
    <circle cx="0" cy="120" r="4" fill="url(#core-node-gradient)" />
    
    <!-- Dense network of micro nodes -->
    <g filter="url(#glow)">
      <!-- Level 1 -->
      <circle cx="-15" cy="-110" r="2" fill="url(#micro-node-gradient)" />
      <circle cx="15" cy="-110" r="2" fill="url(#micro-node-gradient)" />
      <circle cx="-20" cy="-70" r="2.5" fill="url(#micro-node-gradient)" />
      <circle cx="20" cy="-70" r="2.5" fill="url(#micro-node-gradient)" />
      <circle cx="-25" cy="-30" r="3" fill="url(#micro-node-gradient)" />
      <circle cx="25" cy="-30" r="3" fill="url(#micro-node-gradient)" />
      <circle cx="-30" cy="10" r="3.5" fill="url(#micro-node-gradient)" />
      <circle cx="30" cy="10" r="3.5" fill="url(#micro-node-gradient)" />
      <circle cx="-25" cy="50" r="3" fill="url(#micro-node-gradient)" />
      <circle cx="25" cy="50" r="3" fill="url(#micro-node-gradient)" />
      <circle cx="-20" cy="90" r="2.5" fill="url(#micro-node-gradient)" />
      <circle cx="20" cy="90" r="2.5" fill="url(#micro-node-gradient)" />
      <circle cx="-15" cy="130" r="2" fill="url(#micro-node-gradient)" />
      <circle cx="15" cy="130" r="2" fill="url(#micro-node-gradient)" />
      
      <!-- Level 2 -->
      <circle cx="-23" cy="-118" r="1.5" fill="url(#outer-node-gradient)" />
      <circle cx="23" cy="-118" r="1.5" fill="url(#outer-node-gradient)" />
      <circle cx="-28" cy="-78" r="1.5" fill="url(#outer-node-gradient)" />
      <circle cx="28" cy="-78" r="1.5" fill="url(#outer-node-gradient)" />
      <circle cx="-33" cy="-38" r="1.5" fill="url(#outer-node-gradient)" />
      <circle cx="33" cy="-38" r="1.5" fill="url(#outer-node-gradient)" />
      <circle cx="-38" cy="2" r="1.5" fill="url(#outer-node-gradient)" />
      <circle cx="38" cy="2" r="1.5" fill="url(#outer-node-gradient)" />
      <circle cx="-33" cy="42" r="1.5" fill="url(#outer-node-gradient)" />
      <circle cx="33" cy="42" r="1.5" fill="url(#outer-node-gradient)" />
      <circle cx="-28" cy="82" r="1.5" fill="url(#outer-node-gradient)" />
      <circle cx="28" cy="82" r="1.5" fill="url(#outer-node-gradient)" />
      <circle cx="-23" cy="122" r="1.5" fill="url(#outer-node-gradient)" />
      <circle cx="23" cy="122" r="1.5" fill="url(#outer-node-gradient)" />
    </g>
    
    <!-- Dense micro-connections (simplified) -->
    <g opacity="0.3">
      <line x1="0" y1="-120" x2="-15" y2="-110" stroke="#9370DB" stroke-width="0.3" />
      <line x1="0" y1="-120" x2="15" y2="-110" stroke="#9370DB" stroke-width="0.3" />
      <line x1="0" y1="-80" x2="-20" y2="-70" stroke="#9370DB" stroke-width="0.3" />
      <line x1="0" y1="-80" x2="20" y2="-70" stroke="#9370DB" stroke-width="0.3" />
      <line x1="0" y1="-40" x2="-25" y2="-30" stroke="#9370DB" stroke-width="0.3" />
      <line x1="0" y1="-40" x2="25" y2="-30" stroke="#9370DB" stroke-width="0.3" />
      <line x1="0" y1="0" x2="-30" y2="10" stroke="#9370DB" stroke-width="0.3" />
      <line x1="0" y1="0" x2="30" y2="10" stroke="#9370DB" stroke-width="0.3" />
      <line x1="0" y1="40" x2="-25" y2="50" stroke="#9370DB" stroke-width="0.3" />
      <line x1="0" y1="40" x2="25" y2="50" stroke="#9370DB" stroke-width="0.3" />
      <line x1="0" y1="80" x2="-20" y2="90" stroke="#9370DB" stroke-width="0.3" />
      <line x1="0" y1="80" x2="20" y2="90" stroke="#9370DB" stroke-width="0.3" />
      <line x1="0" y1="120" x2="-15" y2="130" stroke="#9370DB" stroke-width="0.3" />
      <line x1="0" y1="120" x2="15" y2="130" stroke="#9370DB" stroke-width="0.3" />
      
      <!-- Level 2 connections -->
      <line x1="-15" y1="-110" x2="-23" y2="-118" stroke="#2DCE89" stroke-width="0.2" />
      <line x1="15" y1="-110" x2="23" y2="-118" stroke="#2DCE89" stroke-width="0.2" />
      <line x1="-20" y1="-70" x2="-28" y2="-78" stroke="#2DCE89" stroke-width="0.2" />
      <line x1="20" y1="-70" x2="28" y2="-78" stroke="#2DCE89" stroke-width="0.2" />
      <line x1="-25" y1="-30" x2="-33" y2="-38" stroke="#2DCE89" stroke-width="0.2" />
      <line x1="25" y1="-30" x2="33" y2="-38" stroke="#2DCE89" stroke-width="0.2" />
      <line x1="-30" y1="10" x2="-38" y2="2" stroke="#2DCE89" stroke-width="0.2" />
      <line x1="30" y1="10" x2="38" y2="2" stroke="#2DCE89" stroke-width="0.2" />
      
      <!-- Spider web mesh (very fine) -->
      <path d="M-10 -120 Q 0 -115 10 -120" stroke="#ddd" stroke-width="0.1" fill="none" opacity="0.2" />
      <path d="M-15 -80 Q 0 -75 15 -80" stroke="#ddd" stroke-width="0.1" fill="none" opacity="0.2" />
      <path d="M-20 -40 Q 0 -35 20 -40" stroke="#ddd" stroke-width="0.1" fill="none" opacity="0.2" />
      <path d="M-25 0 Q 0 5 25 0" stroke="#ddd" stroke-width="0.1" fill="none" opacity="0.2" />
      <path d="M-20 40 Q 0 45 20 40" stroke="#ddd" stroke-width="0.1" fill="none" opacity="0.2" />
      <path d="M-15 80 Q 0 85 15 80" stroke="#ddd" stroke-width="0.1" fill="none" opacity="0.2" />
      <path d="M-10 120 Q 0 125 10 120" stroke="#ddd" stroke-width="0.1" fill="none" opacity="0.2" />
    </g>
  </g>
  
  <!-- Scale transition indicators -->
  <line x1="230" y1="300" x2="310" y2="300" stroke="#666" stroke-width="1.5" stroke-dasharray="5,3" />
  <polygon points="320,300 310,296 310,304" fill="#666" />
  <text x="275" y="290" font-family="Arial" font-size="12" fill="#666">Zoom In</text>
  
  <line x1="570" y1="300" x2="490" y2="300" stroke="#666" stroke-width="1.5" stroke-dasharray="5,3" />
  <polygon points="480,300 490,296 490,304" fill="#666" />
  <text x="530" y="290" font-family="Arial" font-size="12" fill="#666">Zoom In</text>
  
  <!-- Legend -->
  <rect x="300" y="500" width="200" height="85" rx="10" ry="10" fill="white" fill-opacity="0.8" stroke="#ccc" />
  <text x="310" y="520" font-family="Arial" font-size="14" font-weight="bold" fill="#444">Fractal Properties</text>
  
  <circle cx="320" cy="540" r="6" fill="url(#core-node-gradient)" />
  <text x="335" y="543" font-family="Arial" font-size="11" fill="#444">Self-Similar Core Topics</text>
  
  <line x1="310" y1="560" x2="330" y2="560" stroke="#5E72E4" stroke-width="1" />
  <text x="335" y="563" font-family="Arial" font-size="11" fill="#444">Tube Structure at All Scales</text>
  
  <path d="M310 580 Q 320 575 330 580" stroke="#ddd" stroke-width="0.5" fill="none" />
  <text x="335" y="583" font-family="Arial" font-size="11" fill="#444">Recursive Web Connections</text>
</svg>
