<svg xmlns="http://www.w3.org/2000/svg" viewBox="0 0 800 600">
  <!-- Background -->
  <defs>
    <linearGradient id="bg-gradient" x1="0%" y1="0%" x2="100%" y2="100%">
      <stop offset="0%" stop-color="#f8f9fa" />
      <stop offset="100%" stop-color="#e9ecef" />
    </linearGradient>
    
    <!-- Node gradients -->
    <radialGradient id="core-node-gradient" cx="50%" cy="50%" r="50%" fx="50%" fy="50%">
      <stop offset="0%" stop-color="#4361ee" />
      <stop offset="100%" stop-color="#3a0ca3" />
    </radialGradient>
    
    <radialGradient id="mid-node-gradient" cx="50%" cy="50%" r="50%" fx="50%" fy="50%">
      <stop offset="0%" stop-color="#7209b7" />
      <stop offset="100%" stop-color="#560bad" />
    </radialGradient>
    
    <radialGradient id="outer-node-gradient" cx="50%" cy="50%" r="50%" fx="50%" fy="50%">
      <stop offset="0%" stop-color="#f72585" />
      <stop offset="100%" stop-color="#b5179e" />
    </radialGradient>
    
    <!-- Connection gradients -->
    <linearGradient id="connection-gradient" x1="0%" y1="0%" x2="100%" y2="0%">
      <stop offset="0%" stop-color="#4cc9f0" stop-opacity="0.7" />
      <stop offset="100%" stop-color="#4361ee" stop-opacity="0.7" />
    </linearGradient>
    
    <!-- Time slice guides -->
    <linearGradient id="time-slice-gradient" x1="0%" y1="0%" x2="0%" y2="100%">
      <stop offset="0%" stop-color="#4cc9f0" stop-opacity="0.1" />
      <stop offset="100%" stop-color="#4cc9f0" stop-opacity="0.05" />
    </linearGradient>
    
    <!-- Axis labels -->
    <filter id="glow" x="-20%" y="-20%" width="140%" height="140%">
      <feGaussianBlur stdDeviation="2" result="blur" />
      <feComposite in="SourceGraphic" in2="blur" operator="over" />
    </filter>
  </defs>
  
  <!-- Background -->
  <rect width="800" height="600" fill="url(#bg-gradient)" />
  
  <!-- Title -->
  <text x="400" y="40" font-family="Arial" font-size="22" font-weight="bold" fill="#333" text-anchor="middle">Temporal-Spatial Knowledge Structure</text>
  <text x="400" y="70" font-family="Arial" font-size="16" fill="#555" text-anchor="middle">Expanding Knowledge Representation Over Time</text>
  
  <!-- Coordinate system arrows and labels -->
  <line x1="400" y1="500" x2="400" y2="160" stroke="#888" stroke-width="2" stroke-dasharray="5,3" />
  <polygon points="400,150 395,160 405,160" fill="#888" />
  <text x="410" y="155" font-family="Arial" font-size="14" fill="#666">Time (t)</text>
  
  <line x1="400" y1="500" x2="550" y2="450" stroke="#888" stroke-width="2" stroke-dasharray="5,3" />
  <polygon points="560,445 550,445 550,455" fill="#888" />
  <text x="560" y="445" font-family="Arial" font-size="14" fill="#666">Radius (r)</text>
  
  <path d="M400,500 Q 450,480 470,430" stroke="#888" stroke-width="2" stroke-dasharray="5,3" fill="none" />
  <polygon points="473,420 465,425 475,435" fill="#888" />
  <text x="475" y="415" font-family="Arial" font-size="14" fill="#666">Angle (θ)</text>
  
  <!-- Time Slices - Earliest (T1) -->
  <ellipse cx="400" cy="500" rx="60" ry="25" stroke="#4cc9f0" stroke-width="1" fill="url(#time-slice-gradient)" opacity="0.6" />
  <text x="320" y="500" font-family="Arial" font-size="12" fill="#4cc9f0">T₁</text>
  
  <!-- Nodes at T1 (earliest) -->
  <circle cx="400" cy="500" r="12" fill="url(#core-node-gradient)" />
  <text x="400" y="500" font-family="Arial" font-size="8" fill="white" text-anchor="middle">Core</text>
  
  <circle cx="370" cy="490" r="7" fill="url(#mid-node-gradient)" />
  <circle cx="430" cy="490" r="7" fill="url(#mid-node-gradient)" />
  
  <!-- Connections at T1 -->
  <line x1="400" y1="500" x2="370" y2="490" stroke="url(#connection-gradient)" stroke-width="1.5" />
  <line x1="400" y1="500" x2="430" y2="490" stroke="url(#connection-gradient)" stroke-width="1.5" />
  
  <!-- Time Slices - Middle (T2) -->
  <ellipse cx="400" cy="400" rx="120" ry="50" stroke="#4cc9f0" stroke-width="1" fill="url(#time-slice-gradient)" opacity="0.6" />
  <text x="320" y="400" font-family="Arial" font-size="12" fill="#4cc9f0">T₂</text>
  
  <!-- Connection lines between time slices -->
  <line x1="400" y1="500" x2="400" y2="400" stroke="#666" stroke-width="1" stroke-dasharray="3,2" opacity="0.5" />
  <line x1="370" y1="490" x2="350" y2="390" stroke="#666" stroke-width="0.7" stroke-dasharray="3,2" opacity="0.4" />
  <line x1="430" y1="490" x2="450" y2="390" stroke="#666" stroke-width="0.7" stroke-dasharray="3,2" opacity="0.4" />
  
  <!-- Nodes at T2 (middle time) -->
  <circle cx="400" cy="400" r="14" fill="url(#core-node-gradient)" />
  <text x="400" y="400" font-family="Arial" font-size="9" fill="white" text-anchor="middle">Core</text>
  
  <circle cx="350" cy="390" r="9" fill="url(#mid-node-gradient)" />
  <text x="350" y="390" font-family="Arial" font-size="7" fill="white" text-anchor="middle">A</text>
  
  <circle cx="450" cy="390" r="9" fill="url(#mid-node-gradient)" />
  <text x="450" y="390" font-family="Arial" font-size="7" fill="white" text-anchor="middle">B</text>
  
  <circle cx="380" cy="370" r="8" fill="url(#mid-node-gradient)" />
  <text x="380" y="370" font-family="Arial" font-size="7" fill="white" text-anchor="middle">C</text>
  
  <circle cx="420" cy="370" r="8" fill="url(#mid-node-gradient)" />
  <text x="420" y="370" font-family="Arial" font-size="7" fill="white" text-anchor="middle">D</text>
  
  <circle cx="330" cy="400" r="6" fill="url(#outer-node-gradient)" />
  <circle cx="320" cy="380" r="6" fill="url(#outer-node-gradient)" />
  <circle cx="470" cy="400" r="6" fill="url(#outer-node-gradient)" />
  <circle cx="480" cy="380" r="6" fill="url(#outer-node-gradient)" />
  
  <!-- Connections at T2 -->
  <line x1="400" y1="400" x2="350" y2="390" stroke="url(#connection-gradient)" stroke-width="1.5" />
  <line x1="400" y1="400" x2="450" y2="390" stroke="url(#connection-gradient)" stroke-width="1.5" />
  <line x1="400" y1="400" x2="380" y2="370" stroke="url(#connection-gradient)" stroke-width="1.5" />
  <line x1="400" y1="400" x2="420" y2="370" stroke="url(#connection-gradient)" stroke-width="1.5" />
  <line x1="350" y1="390" x2="330" y2="400" stroke="url(#connection-gradient)" stroke-width="1" />
  <line x1="350" y1="390" x2="320" y2="380" stroke="url(#connection-gradient)" stroke-width="1" />
  <line x1="450" y1="390" x2="470" y2="400" stroke="url(#connection-gradient)" stroke-width="1" />
  <line x1="450" y1="390" x2="480" y2="380" stroke="url(#connection-gradient)" stroke-width="1" />
  <line x1="380" y1="370" x2="350" y2="390" stroke="url(#connection-gradient)" stroke-width="1" opacity="0.7" />
  <line x1="420" y1="370" x2="450" y2="390" stroke="url(#connection-gradient)" stroke-width="1" opacity="0.7" />
  
  <!-- Time Slices - Latest (T3) -->
  <ellipse cx="400" cy="300" rx="190" ry="80" stroke="#4cc9f0" stroke-width="1" fill="url(#time-slice-gradient)" opacity="0.6" />
  <text x="320" y="300" font-family="Arial" font-size="12" fill="#4cc9f0">T₃</text>
  
  <!-- Connection lines between time slices -->
  <line x1="400" y1="400" x2="400" y2="300" stroke="#666" stroke-width="1" stroke-dasharray="3,2" opacity="0.5" />
  <line x1="350" y1="390" x2="330" y2="290" stroke="#666" stroke-width="0.7" stroke-dasharray="3,2" opacity="0.4" />
  <line x1="450" y1="390" x2="470" y2="290" stroke="#666" stroke-width="0.7" stroke-dasharray="3,2" opacity="0.4" />
  <line x1="380" y1="370" x2="360" y2="270" stroke="#666" stroke-width="0.7" stroke-dasharray="3,2" opacity="0.4" />
  <line x1="420" y1="370" x2="440" y2="270" stroke="#666" stroke-width="0.7" stroke-dasharray="3,2" opacity="0.4" />
  
  <!-- Nodes at T3 (latest time) -->
  <circle cx="400" cy="300" r="16" fill="url(#core-node-gradient)" />
  <text x="400" y="300" font-family="Arial" font-size="10" fill="white" text-anchor="middle">Core</text>
  
  <!-- Mid-level nodes -->
  <circle cx="330" cy="290" r="11" fill="url(#mid-node-gradient)" />
  <text x="330" y="290" font-family="Arial" font-size="8" fill="white" text-anchor="middle">A</text>
  
  <circle cx="470" cy="290" r="11" fill="url(#mid-node-gradient)" />
  <text x="470" y="290" font-family="Arial" font-size="8" fill="white" text-anchor="middle">B</text>
  
  <circle cx="360" cy="270" r="10" fill="url(#mid-node-gradient)" />
  <text x="360" y="270" font-family="Arial" font-size="8" fill="white" text-anchor="middle">C</text>
  
  <circle cx="440" cy="270" r="10" fill="url(#mid-node-gradient)" />
  <text x="440" y="270" font-family="Arial" font-size="8" fill="white" text-anchor="middle">D</text>
  
  <circle cx="380" cy="330" r="10" fill="url(#mid-node-gradient)" />
  <text x="380" y="330" font-family="Arial" font-size="8" fill="white" text-anchor="middle">E</text>
  
  <circle cx="420" cy="330" r="10" fill="url(#mid-node-gradient)" />
  <text x="420" y="330" font-family="Arial" font-size="8" fill="white" text-anchor="middle">F</text>
  
  <!-- Outer nodes -->
  <circle cx="290" cy="280" r="8" fill="url(#outer-node-gradient)" />
  <text x="290" y="280" font-family="Arial" font-size="6" fill="white" text-anchor="middle">A1</text>
  
  <circle cx="300" cy="310" r="8" fill="url(#outer-node-gradient)" />
  <text x="300" y="310" font-family="Arial" font-size="6" fill="white" text-anchor="middle">A2</text>
  
  <circle cx="310" cy="260" r="8" fill="url(#outer-node-gradient)" />
  <text x="310" y="260" font-family="Arial" font-size="6" fill="white" text-anchor="middle">A3</text>
  
  <circle cx="510" cy="280" r="8" fill="url(#outer-node-gradient)" />
  <text x="510" y="280" font-family="Arial" font-size="6" fill="white" text-anchor="middle">B1</text>
  
  <circle cx="500" cy="310" r="8" fill="url(#outer-node-gradient)" />
  <text x="500" y="310" font-family="Arial" font-size="6" fill="white" text-anchor="middle">B2</text>
  
  <circle cx="490" cy="260" r="8" fill="url(#outer-node-gradient)" />
  <text x="490" y="260" font-family="Arial" font-size="6" fill="white" text-anchor="middle">B3</text>
  
  <circle cx="340" cy="240" r="8" fill="url(#outer-node-gradient)" />
  <text x="340" y="240" font-family="Arial" font-size="6" fill="white" text-anchor="middle">C1</text>
  
  <circle cx="370" cy="230" r="8" fill="url(#outer-node-gradient)" />
  <text x="370" y="230" font-family="Arial" font-size="6" fill="white" text-anchor="middle">C2</text>
  
  <circle cx="460" cy="240" r="8" fill="url(#outer-node-gradient)" />
  <text x="460" y="240" font-family="Arial" font-size="6" fill="white" text-anchor="middle">D1</text>
  
  <circle cx="430" cy="230" r="8" fill="url(#outer-node-gradient)" />
  <text x="430" y="230" font-family="Arial" font-size="6" fill="white" text-anchor="middle">D2</text>
  
  <circle cx="350" cy="340" r="8" fill="url(#outer-node-gradient)" />
  <text x="350" y="340" font-family="Arial" font-size="6" fill="white" text-anchor="middle">E1</text>
  
  <circle cx="450" cy="340" r="8" fill="url(#outer-node-gradient)" />
  <text x="450" y="340" font-family="Arial" font-size="6" fill="white" text-anchor="middle">F1</text>
  
  <!-- Peripheral nodes at the edges -->
  <circle cx="260" cy="300" r="6" fill="url(#outer-node-gradient)" opacity="0.8" />
  <circle cx="275" cy="270" r="6" fill="url(#outer-node-gradient)" opacity="0.8" />
  <circle cx="270" cy="330" r="6" fill="url(#outer-node-gradient)" opacity="0.8" />
  <circle cx="540" cy="300" r="6" fill="url(#outer-node-gradient)" opacity="0.8" />
  <circle cx="525" cy="270" r="6" fill="url(#outer-node-gradient)" opacity="0.8" />
  <circle cx="530" cy="330" r="6" fill="url(#outer-node-gradient)" opacity="0.8" />
  <circle cx="320" cy="220" r="6" fill="url(#outer-node-gradient)" opacity="0.8" />
  <circle cx="400" cy="210" r="6" fill="url(#outer-node-gradient)" opacity="0.8" />
  <circle cx="480" cy="220" r="6" fill="url(#outer-node-gradient)" opacity="0.8" />
  <circle cx="400" cy="370" r="6" fill="url(#outer-node-gradient)" opacity="0.8" />
  <circle cx="330" cy="350" r="6" fill="url(#outer-node-gradient)" opacity="0.8" />
  <circle cx="470" cy="350" r="6" fill="url(#outer-node-gradient)" opacity="0.8" />
  
  <!-- Core connections at T3 -->
  <line x1="400" y1="300" x2="330" y2="290" stroke="url(#connection-gradient)" stroke-width="1.5" />
  <line x1="400" y1="300" x2="470" y2="290" stroke="url(#connection-gradient)" stroke-width="1.5" />
  <line x1="400" y1="300" x2="360" y2="270" stroke="url(#connection-gradient)" stroke-width="1.5" />
  <line x1="400" y1="300" x2="440" y2="270" stroke="url(#connection-gradient)" stroke-width="1.5" />
  <line x1="400" y1="300" x2="380" y2="330" stroke="url(#connection-gradient)" stroke-width="1.5" />
  <line x1="400" y1="300" x2="420" y2="330" stroke="url(#connection-gradient)" stroke-width="1.5" />
  
  <!-- Mid-level connections -->
  <line x1="330" y1="290" x2="290" y2="280" stroke="url(#connection-gradient)" stroke-width="1" />
  <line x1="330" y1="290" x2="300" y2="310" stroke="url(#connection-gradient)" stroke-width="1" />
  <line x1="330" y1="290" x2="310" y2="260" stroke="url(#connection-gradient)" stroke-width="1" />
  
  <line x1="470" y1="290" x2="510" y2="280" stroke="url(#connection-gradient)" stroke-width="1" />
  <line x1="470" y1="290" x2="500" y2="310" stroke="url(#connection-gradient)" stroke-width="1" />
  <line x1="470" y1="290" x2="490" y2="260" stroke="url(#connection-gradient)" stroke-width="1" />
  
  <line x1="360" y1="270" x2="340" y2="240" stroke="url(#connection-gradient)" stroke-width="1" />
  <line x1="360" y1="270" x2="370" y2="230" stroke="url(#connection-gradient)" stroke-width="1" />
  
  <line x1="440" y1="270" x2="460" y2="240" stroke="url(#connection-gradient)" stroke-width="1" />
  <line x1="440" y1="270" x2="430" y2="230" stroke="url(#connection-gradient)" stroke-width="1" />
  
  <line x1="380" y1="330" x2="350" y2="340" stroke="url(#connection-gradient)" stroke-width="1" />
  <line x1="420" y1="330" x2="450" y2="340" stroke="url(#connection-gradient)" stroke-width="1" />
  
  <!-- Cross-connections between different branches -->
  <line x1="360" y1="270" x2="330" y2="290" stroke="url(#connection-gradient)" stroke-width="0.8" opacity="0.6" />
  <line x1="440" y1="270" x2="470" y2="290" stroke="url(#connection-gradient)" stroke-width="0.8" opacity="0.6" />
  <line x1="380" y1="330" x2="330" y2="290" stroke="url(#connection-gradient)" stroke-width="0.8" opacity="0.6" />
  <line x1="420" y1="330" x2="470" y2="290" stroke="url(#connection-gradient)" stroke-width="0.8" opacity="0.6" />
  <line x1="380" y1="330" x2="360" y2="270" stroke="url(#connection-gradient)" stroke-width="0.8" opacity="0.6" />
  <line x1="420" y1="330" x2="440" y2="270" stroke="url(#connection-gradient)" stroke-width="0.8" opacity="0.6" />
  
  <!-- Peripheral connections -->
  <line x1="290" y1="280" x2="260" y2="300" stroke="url(#connection-gradient)" stroke-width="0.7" opacity="0.6" />
  <line x1="290" y1="280" x2="275" y2="270" stroke="url(#connection-gradient)" stroke-width="0.7" opacity="0.6" />
  <line x1="300" y1="310" x2="270" y2="330" stroke="url(#connection-gradient)" stroke-width="0.7" opacity="0.6" />
  
  <line x1="510" y1="280" x2="540" y2="300" stroke="url(#connection-gradient)" stroke-width="0.7" opacity="0.6" />
  <line x1="510" y1="280" x2="525" y2="270" stroke="url(#connection-gradient)" stroke-width="0.7" opacity="0.6" />
  <line x1="500" y1="310" x2="530" y2="330" stroke="url(#connection-gradient)" stroke-width="0.7" opacity="0.6" />
  
  <line x1="340" y1="240" x2="320" y2="220" stroke="url(#connection-gradient)" stroke-width="0.7" opacity="0.6" />
  <line x1="370" y1="230" x2="400" y2="210" stroke="url(#connection-gradient)" stroke-width="0.7" opacity="0.6" />
  <line x1="430" y1="230" x2="400" y2="210" stroke="url(#connection-gradient)" stroke-width="0.7" opacity="0.6" />
  <line x1="460" y1="240" x2="480" y2="220" stroke="url(#connection-gradient)" stroke-width="0.7" opacity="0.6" />
  
  <line x1="350" y1="340" x2="330" y2="350" stroke="url(#connection-gradient)" stroke-width="0.7" opacity="0.6" />
  <line x1="450" y1="340" x2="470" y2="350" stroke="url(#connection-gradient)" stroke-width="0.7" opacity="0.6" />
  <line x1="380" y1="330" x2="400" y2="370" stroke="url(#connection-gradient)" stroke-width="0.7" opacity="0.6" />
  <line x1="420" y1="330" x2="400" y2="370" stroke="url(#connection-gradient)" stroke-width="0.7" opacity="0.6" />
  
  <!-- Connection plane guides -->
  <path d="M225 300 Q 400 200 575 300" stroke="#4cc9f0" stroke-width="1" fill="none" stroke-dasharray="3,2" opacity="0.4" />
  <path d="M260 350 Q 400 450 540 350" stroke="#4cc9f0" stroke-width="1" fill="none" stroke-dasharray="3,2" opacity="0.4" />
  
  <!-- Connecting lines between planes -->
  <line x1="225" y1="300" x2="260" y2="350" stroke="#4cc9f0" stroke-width="1" stroke-dasharray="3,2" opacity="0.3" />
  <line x1="575" y1="300" x2="540" y2="350" stroke="#4cc9f0" stroke-width="1" stroke-dasharray="3,2" opacity="0.3" />
  
  <!-- Legend -->
  <rect x="590" y="400" width="170" height="170" rx="10" ry="10" fill="white" fill-opacity="0.9" stroke="#ddd" />
  <text x="600" y="425" font-family="Arial" font-size="14" font-weight="bold" fill="#333">Legend</text>
  
  <circle cx="610" cy="450" r="10" fill="url(#core-node-gradient)" />
  <text x="630" y="455" font-family="Arial" font-size="12" fill="#333">Core Concepts</text>
  
  <circle cx="610" cy="480" r="8" fill="url(#mid-node-gradient)" />
  <text x="630" y="485" font-family="Arial" font-size="12" fill="#333">Related Topics</text>
  
  <circle cx="610" cy="510" r="6" fill="url(#outer-node-gradient)" />
  <text x="630" y="515" font-family="Arial" font-size="12" fill="#333">Specialized Info</text>
  
  <line x1="600" y1="535" x2="620" y2="535" stroke="url(#connection-gradient)" stroke-width="1.5" />
  <text x="630" y="540" font-family="Arial" font-size="12" fill="#333">Connections</text>
  
  <ellipse cx="610" cy="560" rx="20" ry="10" stroke="#4cc9f0" stroke-width="1" fill="url(#time-slice-gradient)" opacity="0.6" />
  <text x="630" y="565" font-family="Arial" font-size="12" fill="#333">Time Slice</text>
  
  <!-- Key observation -->
  <rect x="40" y="400" width="240" height="170" rx="10" ry="10" fill="white" fill-opacity="0.9" stroke="#ddd" />
  <text x="50" y="425" font-family="Arial" font-size="14" font-weight="bold" fill="#333">Key Characteristics</text>
  
  <text x="50" y="450" font-family="Arial" font-size="12" fill="#333">• Structure expands over time</text>
  <text x="50" y="475" font-family="Arial" font-size="12" fill="#333">• Early timepoints have fewer nodes</text>
  <text x="50" y="500" font-family="Arial" font-size="12" fill="#333">• Knowledge branches and connects</text>
  <text x="50" y="525" font-family="Arial" font-size="12" fill="#333">• Core concepts persist through time</text>
  <text x="50" y="550" font-family="Arial" font-size="12" fill="#333">• Specialized topics increase at edges</text>
</svg>
